#!OML:ASF F:\twosubjects\two\Thursday\Session 1\Rory.ASF
:FULLY-SPECIFIED
:DEGREES
318
root 17.9452 12.8452 9.93213 -43.5606 -81.1238 4.77044
lowerback 18.8546 3.80425 2.33079
upperback 15.1073 4.26826 -0.759559
thorax 6.17355 1.93753 -2.71082
lowerneck -3.53692 -7.9513 -9.7707
upperneck 13.0843 -12.3264 14.5285
head 6.02824 -5.79244 5.31587
rclavicle -3.54085e-014 -3.18055e-014
rhumerus 33.1203 -10.8396 -101.566
rradius 38.0448
rwrist -30.724
rhand -21.4431 6.39198
rfingers 7.12502
rthumb 4.9465 -23.5303
lclavicle -3.54085e-014 -3.18055e-014
lhumerus -13.7971 -31.3529 92.3919
lradius 64.6573
lwrist -13.9556
lhand 1.41404 32.9161
lfingers 7.12502
lthumb 26.9441 61.0151
rfemur -23.5999 1.22511 1.7943
rtibia 38.1256
rfoot 17.1799 -23.2199
rtoes 17.0114
lfemur -22.4141 -4.51838 -8.24056
ltibia 30.0124
lfoot 28.2245 4.08339
ltoes 13.1808
319
root 17.9443 12.8475 9.93431 -43.2171 -81.1383 4.50368
lowerback 18.9491 3.96024 2.53715
upperback 15.0715 4.50941 -0.758821
thorax 6.12272 2.08054 -2.85981
lowerneck -3.62634 -8.21049 -9.95625
upperneck 13.1299 -12.7463 14.9384
head 6.15313 -5.97921 5.43226
rclavicle -2.68359e-015 1.74931e-014
rhumerus 33.9606 -11.6289 -101.964
rradius 37.4749
rwrist -30.5214
rhand -21.2786 6.64862
rfingers 7.12502
rthumb 5.1053 -23.2699
lclavicle -2.68359e-015 1.74931e-014
lhumerus -13.8179 -31.8032 92.6984
lradius 64.5607
lwrist -14.2352
lhand 1.34648 32.7855
lfingers 7.12502
lthumb 26.8794 60.8945
rfemur -23.7925 0.980717 1.95331
rtibia 38.2939
rfoot 17.47 -23.4915
rtoes 15.0811
lfemur -22.5916 -4.5018 -8.20226
ltibia 30.1746
lfoot 28.1708 3.65054
ltoes 12.1019
320
root 17.9365 12.845 9.93799 -43.2001 -81.1944 4.53434
lowerback 18.9989 4.10199 2.53434
upperback 15.0868 4.69423 -0.636288
thorax 6.11617 2.16768 -2.75192
lowerneck -3.64453 -8.42121 -10.4569
upperneck 13.0289 -13.0579 15.387
head 6.23155 -6.13039 5.62587
rclavicle -4.00551e-014 3.02153e-014
rhumerus 34.6737 -12.1177 -102.231
rradius 37.0576
rwrist -30.0639
rhand -21.3696 6.47478
rfingers 7.12502
rthumb 5.01744 -23.4458
lclavicle -4.00551e-014 3.02153e-014
lhumerus -13.7371 -31.9654 92.9962
lradius 64.4711
lwrist -14.2888
lhand 1.3316 32.7896
lfingers 7.12502
lthumb 26.8652 60.9008
rfemur -23.9941 0.149023 2.09764
rtibia 38.5191
rfoot 18.1146 -22.8512
rtoes 13.9182
lfemur -22.6892 -4.37598 -8.19043
ltibia 30.2894
lfoot 28.3064 3.18576
ltoes 10.1485
321
root 17.926 12.838 9.94209 -42.9153 -81.1221 4.26401
lowerback 19.0607 4.16498 2.53595
upperback 15.1305 4.77308 -0.562672
thorax 6.13386 2.20314 -2.68607
lowerneck -3.46178 -8.60592 -10.9087
upperneck 12.6109 -13.3205 15.9205
head 6.1751 -6.2684 5.85256
rclavicle -7.14879e-014 1.82882e-014
rhumerus 35.4732 -12.6263 -102.455
rradius 36.5247
rwrist -29.8593
rhand -21.3104 5.96438
rfingers 7.12502
rthumb 5.0746 -23.9549
lclavicle -7.14879e-014 1.82882e-014
lhumerus -13.5388 -32.1358 93.0255
lradius 64.4549
lwrist -14.2014
lhand 1.64382 32.8694
lfingers 7.12502
lthumb 27.1639 60.9343
rfemur -24.1381 -0.804654 2.14404
rtibia 38.7967
rfoot 18.8672 -22.2302
rtoes 12.4305
lfemur -22.775 -4.39614 -8.21159
ltibia 30.3791
lfoot 28.3253 3.15142
ltoes 10.1534
322
root 17.9201 12.8371 9.94468 -42.5696 -81.0831 3.97464
lowerback 19.1663 4.14086 2.6585
upperback 15.091 4.76259 -0.641188
thorax 6.0553 2.21253 -2.84464
lowerneck -3.42071 -8.63837 -10.9492
upperneck 12.5024 -13.384 16.1127
head 6.15997 -6.2968 5.91683
rclavicle -2.8625e-014 1.74931e-014
rhumerus 36.0897 -12.8753 -102.653
rradius 36.1121
rwrist -29.892
rhand -22.0061 5.59324
rfingers 7.12502
rthumb 4.40284 -24.341
lclavicle -2.8625e-014 1.74931e-014
lhumerus -13.4993 -32.1165 92.957
lradius 64.4569
lwrist -14.2111
lhand 1.93366 32.8371
lfingers 7.12502
lthumb 27.4411 60.8584
rfemur -24.3381 -1.42264 2.21696
rtibia 39.1401
rfoot 19.5864 -22.0382
rtoes 11.3725
lfemur -22.9212 -4.52983 -8.17652
ltibia 30.5453
lfoot 28.2817 2.74245
ltoes 9.16809
323
root 17.9095 12.831 9.9448 -42.518 -81.1113 3.95969
lowerback 19.2726 4.10705 2.60994
upperback 15.0586 4.71182 -0.713281
thorax 5.96245 2.18404 -2.8968
lowerneck -3.43723 -8.54598 -10.9442
upperneck 12.5024 -13.2766 16.2344
head 6.15523 -6.23904 5.96737
rclavicle -7.47927e-015 2.62396e-014
rhumerus 36.5362 -12.6933 -102.69
rradius 35.646
rwrist -30.1069
rhand -22.614 5.65655
rfingers 7.12502
rthumb 3.8159 -24.289
lclavicle -7.47927e-015 2.62396e-014
lhumerus -13.524 -31.8192 92.9063
lradius 64.4723
lwrist -14.3251
lhand 1.95762 32.7595
lfingers 7.12502
lthumb 27.4641 60.7771
rfemur -24.5437 -1.83635 2.31367
rtibia 39.4872
rfoot 19.9265 -21.8972
rtoes 9.92074
lfemur -22.9818 -4.52656 -8.11527
ltibia 30.7024
lfoot 28.2554 2.6473
ltoes 8.48084
324
root 17.8877 12.8136 9.94542 -42.2526 -81.1122 3.67038
lowerback 19.4124 4.13605 2.58702
upperback 15.0804 4.74237 -0.759411
thorax 5.92221 2.19711 -2.9458
lowerneck -3.39116 -8.50716 -11.0712
upperneck 12.3219 -13.2743 16.716
head 6.13365 -6.22891 6.14901
rclavicle -1.47846e-014 1.43125e-014
rhumerus 37.2402 -13.1101 -103.163
rradius 35.1289
rwrist -30.0693
rhand -21.713 5.31035
rfingers 7.12502
rthumb 4.68592 -24.6178
lclavicle -1.47846e-014 1.43125e-014
lhumerus -13.3964 -31.9464 92.6639
lradius 64.5148
lwrist -14.258
lhand 1.75164 32.8238
lfingers 7.12502
lthumb 27.267 60.8726
rfemur -24.731 -2.36288 2.41785
rtibia 39.8846
rfoot 20.3149 -21.81
rtoes 7.20235
lfemur -23.0582 -4.21153 -8.09178
ltibia 30.8993
lfoot 28.1604 2.45019
ltoes 8.5986
325
root 17.8806 12.812 9.94811 -42.1425 -81.0783 3.61945
lowerback 19.4827 4.17169 2.69714
upperback 15.1224 4.80152 -0.891761
thorax 5.96669 2.24318 -3.15934
lowerneck -3.67864 -8.49809 -11.0168
upperneck 12.4237 -13.3252 17.0715
head 6.24601 -6.21893 6.24021
rclavicle -1.10822e-014 1.19271e-014
rhumerus 38.1032 -13.7916 -103.792
rradius 34.8059
rwrist -30.4513
rhand -20.3889 4.72806
rfingers 7.12502
rthumb 5.96436 -25.168
lclavicle -1.10822e-014 1.19271e-014
lhumerus -13.1441 -32.2507 92.2844
lradius 64.5521
lwrist -14.1504
lhand 1.32937 33.0823
lfingers 7.12502
lthumb 26.863 61.1938
rfemur -24.969 -3.06038 2.45087
rtibia 40.2713
rfoot 21.0289 -21.6585
rtoes 4.53733
lfemur -23.2346 -4.11272 -8.12174
ltibia 31.0848
lfoot 28.0291 2.20252
ltoes 8.22701
326
root 17.8686 12.8062 9.95309 -42.5515 -80.9632 4.11792
lowerback 19.4927 4.26713 2.78069
upperback 15.2056 4.93394 -0.965121
thorax 6.08747 2.32288 -3.29872
lowerneck -3.78199 -8.64244 -11.1306
upperneck 12.2044 -13.5377 17.4402
head 6.2647 -6.30898 6.35133
rclavicle 1.71949e-014 1.03368e-014
rhumerus 38.9216 -14.3049 -103.831
rradius 34.483
rwrist -31.2278
rhand -20.1502 5.03773
rfingers 7.12502
rthumb 6.19478 -24.8517
lclavicle 1.71949e-014 1.03368e-014
lhumerus -12.8156 -32.5688 92.21
lradius 64.5173
lwrist -14.1855
lhand 1.18573 33.2994
lfingers 7.12502
lthumb 26.7256 61.432
rfemur -25.1904 -3.52393 2.29099
rtibia 40.7004
rfoot 21.4434 -21.6098
rtoes 2.18324
lfemur -23.4031 -3.9883 -8.26681
ltibia 31.2447
lfoot 27.9103 2.2766
ltoes 9.08978
327
root 17.8541 12.8033 9.95342 -42.0094 -81.1214 3.58917
lowerback 19.5737 4.49255 3.21275
upperback 15.3041 5.28521 -0.900518
thorax 6.23674 2.53818 -3.51299
lowerneck -3.43878 -8.97811 -11.3451
upperneck 11.3648 -13.9754 18.0144
head 6.07282 -6.54353 6.53746
rclavicle 2.18166e-014 -7.15625e-015
rhumerus 39.8261 -15.275 -103.933
rradius 34.0979
rwrist -30.9613
rhand -19.7478 5.19082
rfingers 7.12502
rthumb 6.58332 -24.6868
lclavicle 2.18166e-014 -7.15625e-015
lhumerus -12.4232 -33.3775 92.2421
lradius 64.4447
lwrist -14.1399
lhand 1.28047 33.3187
lfingers 7.12502
lthumb 26.8163 61.4374
rfemur -25.3595 -3.59149 2.47498
rtibia 41.1195
rfoot 21.9992 -21.7606
rtoes 1.12346
lfemur -23.3871 -3.65202 -8.13272
ltibia 31.2192
lfoot 28.0084 2.02045
ltoes 8.92509
328
root 17.8501 12.8091 9.95012 -40.5775 -81.3716 2.13703
lowerback 19.7607 4.59841 3.77554
upperback 15.3478 5.50086 -0.87613
thorax 6.28256 2.69645 -3.83501
lowerneck -3.17981 -9.17775 -11.5532
upperneck 10.7611 -14.2564 18.5925
head 5.9477 -6.6953 6.74009
rclavicle -1.49585e-014 2.62396e-014
rhumerus 40.6039 -16.007 -104.162
rradius 33.8484
rwrist -30.5569
rhand -19.4549 4.0304
rfingers 7.12502
rthumb 6.86608 -25.8383
lclavicle -1.49585e-014 2.62396e-014
lhumerus -12.1692 -34.0079 92.0849
lradius 64.4481
lwrist -14.031
lhand 1.27313 33.3185
lfingers 7.12502
lthumb 26.8092 61.4383
rfemur -25.6184 -3.77812 2.89652
rtibia 41.6319
rfoot 23.0623 -21.7325
rtoes 1.22646
lfemur -23.2882 -3.30032 -7.82766
ltibia 31.0358
lfoot 28.2448 1.20167
ltoes 5.75844
329
root 17.8604 12.8236 9.94776 -41.3094 -81.1472 2.95087
lowerback 19.8794 4.57289 3.51283
upperback 15.3315 5.43062 -0.936438
thorax 6.17094 2.6376 -3.7563
lowerneck -2.9494 -9.12289 -11.9927
upperneck 10.4885 -14.1925 19.0348
head 5.87983 -6.68427 6.97741
rclavicle -2.2413e-014 1.35174e-014
rhumerus 41.0866 -16.0469 -104.196
rradius 33.7548
rwrist -30.8708
rhand -19.8528 2.70955
rfingers 7.12502
rthumb 6.48192 -27.1713
lclavicle -2.2413e-014 1.35174e-014
lhumerus -12.2092 -33.8519 92.0273
lradius 64.5453
lwrist -14.0738
lhand 1.26158 33.4222
lfingers 7.12502
lthumb 26.7982 61.5436
rfemur -25.8631 -4.47816 2.70921
rtibia 41.8769
rfoot 24.6563 -21.2504
rtoes 0.52156
lfemur -23.3481 -3.20557 -8.09391
ltibia 30.9697
lfoot 28.5951 1.02119
ltoes 4.31076
330
root 17.8618 12.8326 9.9449 -41.6467 -81.0404 3.46223
lowerback 20.2966 4.74736 2.85841
upperback 15.0829 5.58395 -0.621241
thorax 5.56603 2.63399 -3.11909
lowerneck -2.87759 -9.19786 -12.2779
upperneck 10.4854 -14.235 18.792
head 5.87501 -6.72507 6.94138
rclavicle 1.60022e-014 1.51076e-014
rhumerus 41.2023 -16.2202 -103.523
rradius 33.6138
rwrist -31.2574
rhand -19.9125 2.47955
rfingers 7.12502
rthumb 6.42429 -27.403
lclavicle 1.60022e-014 1.51076e-014
lhumerus -12.6841 -33.6157 92.732
lradius 64.6368
lwrist -14.2471
lhand 1.244 33.566
lfingers 7.12502
lthumb 26.7814 61.6901
rfemur -26.1839 -4.75216 2.54421
rtibia 42.1209
rfoot 26.0925 -21.114
rtoes -0.890441
lfemur -23.4856 -2.9599 -8.26877
ltibia 30.8953
lfoot 29.0783 1.23327
ltoes 4.70862
331
root 17.9215 12.9045 9.93435 -40.4326 -81.2768 2.2961
lowerback 20.7761 4.98166 2.73414
upperback 14.9304 5.88134 -0.23941
thorax 5.11139 2.74801 -2.72839
lowerneck -3.30169 -9.42406 -12.146
upperneck 10.7008 -14.4699 18.2966
head 6.00665 -6.82002 6.70614
rclavicle -4.12478e-015 -1.66979e-014
rhumerus 41.6154 -16.6776 -102.971
rradius 33.3146
rwrist -31.1996
rhand -19.94 2.59248
rfingers 7.12502
rthumb 6.39775 -27.2909
lclavicle -4.12478e-015 -1.66979e-014
lhumerus -12.8884 -33.6733 93.3106
lradius 64.6732
lwrist -14.3553
lhand 1.32382 33.3826
lfingers 7.12502
lthumb 26.8577 61.4949
rfemur -26.0046 -4.23312 2.79226
rtibia 42.0758
rfoot 26.742 -21.529
rtoes -1.19551
lfemur -23.5072 -5.41619 -6.62873
ltibia 30.9952
lfoot 25.647 12.6068
ltoes 35.1723
332
root 17.9184 12.9162 9.92789 -39.6606 -81.342 1.54988
lowerback 21.0939 5.00614 2.6369
upperback 14.8377 5.90148 -0.124362
thorax 4.82232 2.73898 -2.58517
lowerneck -3.50114 -9.41985 -12.2547
upperneck 10.757 -14.4442 18.2973
head 6.06342 -6.79801 6.71749
rclavicle -1.70458e-014 5.56597e-015
rhumerus 42.2354 -16.8922 -103.262
rradius 32.8563
rwrist -30.5869
rhand -19.644 2.24029
rfingers 7.12502
rthumb 6.68347 -27.6342
lclavicle -1.70458e-014 5.56597e-015
lhumerus -13.0224 -33.374 93.4672
lradius 64.7094
lwrist -14.4475
lhand 1.47129 33.0817
lfingers 7.12502
lthumb 26.9988 61.1723
rfemur -25.8796 -4.0482 2.75234
rtibia 42.2518
rfoot 26.5294 -21.4455
rtoes -0.500796
lfemur -23.5863 -5.4937 -6.34001
ltibia 31.1224
lfoot 25.2066 12.7675
ltoes 36.4316
